<svg width="35" height="32" viewBox="0 0 35 32" fill="none" xmlns="http://www.w3.org/2000/svg">
<path d="M26.9025 24.3385L26.4274 23.4585V23.4585L26.9025 24.3385ZM27.6193 23.1903H26.6193V23.1903H27.6193ZM15.9915 28.538L15.489 29.4026V29.4026L15.9915 28.538ZM19.0392 28.5837L19.5142 29.4637V29.4637L19.0392 28.5837ZM2.7768 10.849L2.29835 9.97091L2.7768 10.849ZM2.7768 11.9944L2.29835 12.8725H2.29835L2.7768 11.9944ZM18.2466 19.6097L18.725 20.4878L18.2466 19.6097ZM16.7534 19.6097L17.2319 18.7316V18.7316L16.7534 19.6097ZM32.2232 10.849L32.7017 9.97091L32.2232 10.849ZM32.2232 11.9944L31.7448 11.1163L32.2232 11.9944ZM8.77563 24.3443L9.27811 23.4797H9.27811L8.77563 24.3443ZM18.2466 3.23374L17.7681 4.11185L18.2466 3.23374ZM16.7534 3.23374L17.2319 4.11185V4.11185L16.7534 3.23374ZM33.375 11.3995C33.375 10.8472 32.9273 10.3995 32.375 10.3995C31.8227 10.3995 31.375 10.8472 31.375 11.3995H32.375H33.375ZM31.375 18.5995C31.375 19.1518 31.8227 19.5995 32.375 19.5995C32.9273 19.5995 33.375 19.1518 33.375 18.5995H32.375H31.375ZM18.2466 3.23374L17.7681 4.11185L31.7448 11.7271L32.2232 10.849L32.7017 9.97091L18.725 2.35562L18.2466 3.23374ZM32.2232 11.9944L31.7448 11.1163L17.7681 18.7316L18.2466 19.6097L18.725 20.4878L32.7017 12.8725L32.2232 11.9944ZM2.7768 10.849L3.25525 11.7271L17.2319 4.11185L16.7534 3.23374L16.275 2.35562L2.29835 9.97091L2.7768 10.849ZM16.7534 19.6097L17.2319 18.7316L8.57807 14.0165L8.09962 14.8946L7.62118 15.7727L16.275 20.4878L16.7534 19.6097ZM8.09962 14.8946L8.57807 14.0165L3.25525 11.1163L2.7768 11.9944L2.29835 12.8725L7.62118 15.7727L8.09962 14.8946ZM8.09962 14.8946H7.09962V23.2191H8.09962H9.09962V14.8946H8.09962ZM8.77563 24.3443L8.27316 25.2089L15.489 29.4026L15.9915 28.538L16.494 27.6734L9.27811 23.4797L8.77563 24.3443ZM19.0392 28.5837L19.5142 29.4637L27.3775 25.2184L26.9025 24.3385L26.4274 23.4585L18.5641 27.7038L19.0392 28.5837ZM27.6193 23.1903H28.6193L28.6193 14.8946H27.6193L26.6193 14.8946L26.6193 23.1903H27.6193ZM26.9025 24.3385L27.3775 25.2184C28.117 24.8192 28.6193 24.0604 28.6193 23.1903H27.6193H26.6193C26.6193 23.2636 26.5764 23.3781 26.4274 23.4585L26.9025 24.3385ZM15.9915 28.538L15.489 29.4026C16.7166 30.116 18.2644 30.1384 19.5142 29.4637L19.0392 28.5837L18.5641 27.7038C17.925 28.0488 17.1177 28.0359 16.494 27.6734L15.9915 28.538ZM2.7768 10.849L2.29835 9.97091C1.12843 10.6084 1.12844 12.2351 2.29835 12.8725L2.7768 11.9944L3.25525 11.1163C3.33607 11.1603 3.42091 11.2734 3.42091 11.4217C3.42091 11.57 3.33607 11.6831 3.25525 11.7271L2.7768 10.849ZM18.2466 19.6097L17.7681 18.7316C17.6064 18.8197 17.3936 18.8197 17.2319 18.7316L16.7534 19.6097L16.275 20.4878C17.0332 20.9009 17.9668 20.9009 18.725 20.4878L18.2466 19.6097ZM32.2232 10.849L31.7448 11.7271C31.6639 11.6831 31.5791 11.57 31.5791 11.4217C31.5791 11.2734 31.6639 11.1603 31.7448 11.1163L32.2232 11.9944L32.7017 12.8725C33.8716 12.2351 33.8716 10.6084 32.7017 9.97091L32.2232 10.849ZM8.09962 23.2191H7.09962C7.09962 24.0599 7.56958 24.8 8.27316 25.2089L8.77563 24.3443L9.27811 23.4797C9.13967 23.3993 9.09962 23.2905 9.09962 23.2191H8.09962ZM18.2466 3.23374L18.725 2.35562C17.9668 1.94249 17.0332 1.94249 16.275 2.35562L16.7534 3.23374L17.2319 4.11185C17.3936 4.02375 17.6064 4.02375 17.7681 4.11185L18.2466 3.23374ZM32.375 11.3995H31.375V18.5995H32.375H33.375V11.3995H32.375Z" fill="#7899DC"/>
</svg>
